<svg xmlns="http://www.w3.org/2000/svg" xmlns:xlink="http://www.w3.org/1999/xlink" viewBox="0 0 50 50"><defs><style>.a{fill:url(#a);}.b{fill:#f2c100;}.c{fill:#fffacf;}.d,.g{fill:none;}.d,.e,.f,.g{stroke:#45413c;stroke-width:1.25px;}.d{stroke-miterlimit:10;}.e{fill:#ff6242;}.e,.f,.g{stroke-linecap:round;stroke-linejoin:round;}.f{fill:#fff;}.h{fill:#00b8f0;}.i{fill:#4acfff;}</style><linearGradient id="a" x1="24.224" y1="6.75" x2="24.012" y2="39.631" gradientUnits="userSpaceOnUse"><stop offset="0" stop-color="#fff48c"/><stop offset="1" stop-color="#ffe500"/></linearGradient><symbol id="b" viewBox="0 0 48.25 44.221"><path d="M0.625 22.111 A23.5 21.486 0 1 0 47.625 22.111 A23.5 21.486 0 1 0 0.625 22.111 Z" class="a"/><path class="b" d="M24.125,39.6c-13.3,0-22.406-8.558-23.4-19.485-.06.659-.1,1.324-.1,2,0,11.866,9.4,21.485,23.5,21.485s23.5-9.619,23.5-21.485c0-.676-.039-1.341-.1-2C46.531,31.038,37.423,39.6,24.125,39.6Z"/><path d="M17.625 3.125 A6.5 1 0 1 0 30.625 3.125 A6.5 1 0 1 0 17.625 3.125 Z" class="c"/><path d="M0.625 22.111 A23.5 21.486 0 1 0 47.625 22.111 A23.5 21.486 0 1 0 0.625 22.111 Z" class="d"/></symbol></defs><title>U+1E605-grinning-face-with-sweat</title><use width="48.25" height="44.221" transform="translate(0.875 3.378) scale(1 0.978)" xlink:href="#b"/><path class="e" d="M16.051,24.414a1.164,1.164,0,0,1,1.159-1.023H32.79a1.164,1.164,0,0,1,1.159,1.023c.26,2.13-.156,6.841-8.949,6.841S15.791,26.544,16.051,24.414Z"/><path class="f" d="M33.762,26.886a6.333,6.333,0,0,0,.179-2.477,1.152,1.152,0,0,0-1.147-1.018H17.216A1.157,1.157,0,0,0,16.06,24.4a6.358,6.358,0,0,0,.178,2.486A40,40,0,0,1,25,26.012,40,40,0,0,1,33.762,26.886Z"/><path class="g" d="M28.469,18.969s0-3,2.4-3,2.4,3,2.4,3"/><path class="g" d="M16.731,18.969s0-3,2.4-3,2.4,3,2.4,3"/><path class="h" d="M36.409,14.338a4.893,4.893,0,0,0,9.778-.148C46.125,10.152,41.833,3.484,41.135,3.5S36.348,10.3,36.409,14.338Z"/><path class="i" d="M41.233,10.013a4.8,4.8,0,0,0-4.8,4.555c-.005-.078-.026-.151-.027-.229C36.348,10.3,40.436,3.505,41.135,3.5s4.99,6.657,5.052,10.7c0,.078-.018.152-.021.23A4.8,4.8,0,0,0,41.233,10.013Z"/><path class="g" d="M36.409,14.338a4.893,4.893,0,0,0,9.778-.148C46.125,10.152,41.833,3.484,41.135,3.5S36.348,10.3,36.409,14.338Z"/></svg>