<svg xmlns="http://www.w3.org/2000/svg" viewBox="0 0 50 50"><defs><style>.a{fill:#ffe500;}.b{fill:#f2c100;}.c{fill:none;stroke:#45413c;stroke-linecap:round;stroke-linejoin:round;stroke-width:1.25px;}</style></defs><title>U+1F4AA-fixed-biceps</title><path class="a" d="M36.006,21.459c-11.25-2.317-16.124,5.458-19.118,10.986,1.736-4.231,1.457-11.917,2.229-12.969.872-1.189,4.882-4.718,5.762-5.683a1.354,1.354,0,0,0-.806-2.412l.031-.01c.753-1.149,1.2-3.591.679-4.463-.947-1.6-10.345-2.419-12,0s-.565,8.366-1.2,10.545S7.143,23.679,4.447,30.022s-3.172,11.9,0,13.163c3.059,1.224,30.459,3.038,42.017-1.388a2.006,2.006,0,0,0,1.285-1.834C47.85,35.909,47.2,23.763,36.006,21.459Z"/><path class="b" d="M46.436,30.92a30.078,30.078,0,0,1,.082,3.017A2,2,0,0,1,45.3,35.771C34.37,40.2,8.452,38.382,5.558,37.159c-1.483-.628-2.12-2.3-2.08-4.6-1.785,5.24-1.772,9.535.969,10.631,3.059,1.224,30.459,3.038,42.018-1.388a2.007,2.007,0,0,0,1.284-1.834A26.5,26.5,0,0,0,46.436,30.92Z"/><path class="c" d="M18.006,13.291c1.111.436,3.589-1.639,5.115-1.9,2.062-.357,2.866,1.189,1.758,2.4-.88.965-4.89,4.494-5.762,5.683s-.4,10.863-3.014,14.432c2.934-5.472,7.616-14.979,19.9-12.45C47.2,23.763,47.85,35.909,47.749,39.963A2.007,2.007,0,0,1,46.465,41.8C34.906,46.223,7.506,44.409,4.447,43.185c-3.172-1.269-2.7-6.819,0-13.163s6.5-10.39,7.137-12.569-.456-8.126,1.2-10.545,11.052-1.6,12,0c.519.872.074,3.314-.679,4.463"/><path class="c" d="M16.1,33.908a8.467,8.467,0,0,1-2.378,2.537"/><path class="c" d="M19.676,12.909a3.141,3.141,0,0,1,1.3-4.019,5.9,5.9,0,0,1-3.965.476"/></svg>