<svg xmlns="http://www.w3.org/2000/svg" xmlns:xlink="http://www.w3.org/1999/xlink" viewBox="0 0 50 50"><defs><style>.a{fill:url(#a);}.b{fill:none;stroke:#45413c;stroke-linecap:round;stroke-linejoin:round;stroke-width:1.25px;}.c{fill:#45413c;}.d{fill:#e5f8ff;}.e{fill:#fff;}</style><linearGradient id="a" x1="25.174" y1="22.528" x2="24.888" y2="40.289" gradientUnits="userSpaceOnUse"><stop offset="0" stop-color="#fff48c"/><stop offset="1" stop-color="#ffe500"/></linearGradient></defs><title>U+1F9B1-curly-hair</title><path class="a" d="M45.083,39.4a20.891,20.891,0,0,0,.683-3.1,2.983,2.983,0,0,0,0-5.946,20.974,20.974,0,0,0-41.532,0,2.983,2.983,0,0,0,0,5.946,21.018,21.018,0,0,0,.683,3.1A162.6,162.6,0,0,0,45.083,39.4Z"/><path class="b" d="M45.083,39.4a20.85,20.85,0,0,0,.683-3.1,2.983,2.983,0,0,0,0-5.946,20.974,20.974,0,0,0-41.532,0,2.983,2.983,0,0,0,0,5.946,20.975,20.975,0,0,0,.682,3.1A162.512,162.512,0,0,0,45.083,39.4Z"/><path d="M18.077 33.602 A1.400 1.400 0 1 0 20.877 33.602 A1.400 1.400 0 1 0 18.077 33.602 Z" class="c"/><path d="M29.277 33.602 A1.400 1.400 0 1 0 32.077 33.602 A1.400 1.400 0 1 0 29.277 33.602 Z" class="c"/><path class="d" d="M45.843,30.13c0-5.811-1.535-12.27-7.375-14.338-.108-1.462-1.091-2.971-3.181-4.274C31.7,9.283,23.007,8.364,16.733,10.8c-6.5,2.529-5.789,5.472-5.789,5.472S4.312,19.587,4.312,30.13c7.927-1.617,8.456-11.449,8.456-11.449s4.77,3.023,13.216,4.44c4.093.688,8.511.476,10.651-.819C37.544,24.227,38.84,27.237,45.843,30.13Z"/><path class="e" d="M10.944,20.122s-.714-2.942,5.789-5.471c6.274-2.44,14.97-1.521,18.554.713,2.09,1.3,3.073,2.812,3.181,4.274,4.525,1.6,6.46,5.843,7.1,10.373.093.04.176.079.271.119,0-5.811-1.535-12.27-7.375-14.338-.108-1.462-1.091-2.971-3.181-4.274C31.7,9.283,23.007,8.364,16.733,10.8c-6.5,2.529-5.789,5.472-5.789,5.472S4.312,19.587,4.312,30.13c.12-.025.233-.057.349-.085C6.017,22.6,10.944,20.122,10.944,20.122Z"/><path class="b" d="M45.843,30.13c0-5.811-1.535-12.27-7.375-14.338-.108-1.462-1.091-2.971-3.181-4.274C31.7,9.283,23.007,8.364,16.733,10.8c-6.5,2.529-5.789,5.472-5.789,5.472S4.312,19.587,4.312,30.13c7.927-1.617,8.456-11.449,8.456-11.449s4.77,3.023,13.216,4.44c4.093.688,8.511.476,10.651-.819C37.544,24.227,38.84,27.237,45.843,30.13Z"/><path class="b" d="M12.768,18.681a7.357,7.357,0,0,1-1.824-2.405"/></svg>