<?xml version="1.0" encoding="utf-8"?>
<!-- Generator: Adobe Illustrator 23.0.4, SVG Export Plug-In . SVG Version: 6.00 Build 0)  -->
<svg version="1.1" id="Layer_1" xmlns="http://www.w3.org/2000/svg" xmlns:xlink="http://www.w3.org/1999/xlink" x="0px" y="0px" viewBox="0 0 50 50" style="enable-background:new 0 0 50 50;" xml:space="preserve">
    <style type="text/css">
        .st0{fill:url(#SVGID_1_);}
        .st1{fill:#F2C100;}
        .st2{fill:#FFFACF;}
        .st3{fill:none;stroke:#45413C;stroke-width:1.2362;stroke-miterlimit:10;}
        .st4{fill:#FF6242;stroke:#45413C;stroke-width:1.25;stroke-linecap:round;stroke-linejoin:round;}
        .st5{fill:#FFFFFF;stroke:#45413C;stroke-width:1.25;stroke-linecap:round;stroke-linejoin:round;}
        .st6{fill:none;stroke:#45413C;stroke-width:1.25;stroke-linecap:round;stroke-linejoin:round;}
        .st7{fill:#00B8F0;}
        .st8{fill:#4ACFFF;}
    </style>
    <title>U+1E605-grinning-face-with-sweat</title>
    <linearGradient id="SVGID_1_" gradientUnits="userSpaceOnUse" x1="-8165.9009" y1="-8150.6392" x2="-8166.1128" y2="-8183.52" gradientTransform="matrix(1 0 0 -0.978 8190.8154 -7961.1655)">
		    <stop offset="0" style="stop-color:#FFF48C"/>
        <stop offset="1" style="stop-color:#FFE500"/>
	    </linearGradient>
    <ellipse class="st0" cx="25" cy="25.002" rx="23.499" ry="21.013"/>
    <path class="st1" d="M48.399,23.05c0.061,0.644,0.1,1.295,0.1,1.956c0,11.605-9.4,21.012-23.499,21.012S1.501,36.611,1.501,25.006 c0-0.661,0.04-1.311,0.1-1.956C2.595,33.736,11.7,42.106,25,42.106C38.298,42.106,47.405,33.732,48.399,23.05z"/>
    <ellipse class="st2" cx="25" cy="6.434" rx="6.5" ry="0.978"/>
    <ellipse class="st3" cx="25" cy="25.002" rx="23.499" ry="21.013"/>
    <path class="st4" d="M16.051,24.414c0.071-0.585,0.569-1.025,1.159-1.023h15.58c0.59-0.002,1.088,0.438,1.159,1.023 c0.26,2.13-0.156,6.841-8.949,6.841S15.791,26.544,16.051,24.414z"/>
    <path class="st5" d="M33.762,26.886c0.223-0.806,0.283-1.648,0.179-2.477c-0.068-0.581-0.562-1.019-1.147-1.018H17.216 c-0.585-0.004-1.081,0.429-1.156,1.009c-0.105,0.832-0.045,1.677,0.178,2.486c2.88-0.613,5.818-0.906,8.762-0.874 C27.944,25.98,30.882,26.273,33.762,26.886z"/>
    <path class="st6" d="M28.469,18.969c0,0,0-3,2.4-3s2.4,3,2.4,3"/>
    <path class="st6" d="M16.731,18.969c0,0,0-3,2.4-3s2.4,3,2.4,3"/>
    <path class="st7" d="M36.409,14.338c0.142,2.699,2.445,4.771,5.144,4.629c2.557-0.135,4.577-2.217,4.634-4.777 c-0.062-4.038-4.354-10.706-5.052-10.69S36.348,10.3,36.409,14.338z"/>
    <path class="st8" d="M41.233,10.013c-2.558-0.003-4.669,2-4.8,4.555c-0.005-0.078-0.026-0.151-0.027-0.229 C36.348,10.3,40.436,3.505,41.135,3.5s4.99,6.657,5.052,10.7c0,0.078-0.018,0.152-0.021,0.23 C45.963,11.878,43.792,9.934,41.233,10.013z"/>
    <path class="st6" d="M36.409,14.338c0.142,2.699,2.445,4.771,5.144,4.629c2.557-0.135,4.577-2.217,4.634-4.777 c-0.062-4.038-4.354-10.706-5.052-10.69S36.348,10.3,36.409,14.338z"/>
</svg>
