<svg xmlns="http://www.w3.org/2000/svg" viewBox="0 0 50 50"><defs><style>.a,.h{fill:#f0f0f0;}.b{fill:#e0e0e0;}.c{fill:#ff6242;}.d{fill:#e04122;}.e{fill:none;}.e,.h{stroke:#45413c;stroke-miterlimit:10;stroke-width:1.25px;}.f{fill:#525252;}.g{fill:#656769;}</style></defs><title>U+1F9AF-probing-cane-</title><path class="a" d="M3.89,45.959A1.526,1.526,0,0,1,3.825,43.8l34.74-36.92a1.525,1.525,0,1,1,2.221,2.09L6.046,45.893A1.526,1.526,0,0,1,3.89,45.959Z"/><path class="b" d="M40.721,6.817a1.526,1.526,0,0,1,.065,2.156L6.046,45.893a1.526,1.526,0,0,1-2.156.066Z"/><path class="c" d="M14.8,32.144,3.825,43.8a1.525,1.525,0,1,0,2.221,2.09l10.97-11.659Z"/><path class="d" d="M17.016,34.234,6.046,45.893a1.526,1.526,0,0,1-2.156.066l12.016-12.77Z"/><path class="e" d="M46.836,5.73a7.1,7.1,0,0,1,1.542,4.844,4.071,4.071,0,0,1-1.72,3.2,2.433,2.433,0,0,1-3.308-.665,4.561,4.561,0,0,1-.165-2.731,13.908,13.908,0,0,0-.005-3.133c-.1-.854-.49-1.8-.15-2.641C43.9,2.459,46.049,4.722,46.836,5.73Z"/><path class="e" d="M3.89,45.959A1.526,1.526,0,0,1,3.825,43.8l34.74-36.92a1.525,1.525,0,1,1,2.221,2.09L6.046,45.893A1.526,1.526,0,0,1,3.89,45.959Z"/><path class="e" d="M14.8,32.144,3.825,43.8a1.525,1.525,0,1,0,2.221,2.09l10.97-11.659Z"/><path class="f" d="M35.322,13.252l-.7-.655a1.81,1.81,0,0,1-.077-2.558l7.118-7.565a2.287,2.287,0,0,1,3.233-.1h0A2.287,2.287,0,0,1,45,5.609L37.88,13.174A1.809,1.809,0,0,1,35.322,13.252Z"/><path class="g" d="M44.9,2.376a2.287,2.287,0,0,0-3.233.1L40.1,4.14a2.287,2.287,0,1,1,3.331,3.134L45,5.609A2.287,2.287,0,0,0,44.9,2.376Z"/><path class="e" d="M35.322,13.252l-.7-.655a1.81,1.81,0,0,1-.077-2.558l7.118-7.565a2.287,2.287,0,0,1,3.233-.1h0A2.287,2.287,0,0,1,45,5.609L37.88,13.174A1.809,1.809,0,0,1,35.322,13.252Z"/><circle class="h" cx="3.89" cy="45.959" r="2.287"/><line class="e" x1="24.199" y1="22.151" x2="26.42" y2="24.24"/><line class="e" x1="40.884" y1="3.307" x2="44.215" y2="6.441"/><line class="e" x1="38.271" y1="6.083" x2="41.603" y2="9.217"/><line class="e" x1="35.659" y1="8.859" x2="38.991" y2="11.993"/></svg>