<svg xmlns="http://www.w3.org/2000/svg" xmlns:xlink="http://www.w3.org/1999/xlink" viewBox="0 0 50 50"><defs><style>.a{fill:url(#a);}.b{fill:none;}.b,.e,.h{stroke:#45413c;stroke-linecap:round;stroke-linejoin:round;stroke-width:1.25px;}.c{fill:#ffcc24;}.d{fill:#ffbe3d;}.e{fill:#b89558;}.f{fill:#a6fbff;}.g,.h{fill:#e5feff;}.i{fill:#b8ecff;}.j{fill:#e5f8ff;}</style><linearGradient id="a" x1="15.5" y1="8.866" x2="15.5" y2="25.401" gradientUnits="userSpaceOnUse"><stop offset="0" stop-color="#fff48c"/><stop offset="1" stop-color="#ffe500"/></linearGradient></defs><title>U+1F6CC-person-in-bed</title><circle class="a" cx="15.5" cy="18.25" r="9"/><path class="b" d="M24.112,15.627A9,9,0,1,1,15.5,9.25a9.012,9.012,0,0,1,8.612,6.377"/><path class="b" d="M18.48,12.039a1.4,1.4,0,0,1-.436,1.768"/><path class="b" d="M23.214,13.612a1.681,1.681,0,0,1-1.4,1.492"/><path class="c" d="M10.914,10.5A14.23,14.23,0,0,1,16.5,17.75s-1.25,1.689.42,2.456A1.438,1.438,0,0,0,19,19.25a11.479,11.479,0,0,1,4.109,3.809A9,9,0,1,1,10.914,10.5Z"/><path class="b" d="M23.552,22.275A9,9,0,1,1,15.5,9.25"/><path class="d" d="M6.61,16.839a8.966,8.966,0,0,0,15.43,4.809,9.881,9.881,0,0,1,1.069,1.411A9,9,0,0,1,6.5,18.25,9.117,9.117,0,0,1,6.61,16.839Z"/><path class="b" d="M10.914,10.5A14.23,14.23,0,0,1,16.5,17.75s-1.25,1.689.42,2.456A1.438,1.438,0,0,0,19,19.25a11.479,11.479,0,0,1,4.109,3.809A9,9,0,1,1,10.914,10.5Z"/><rect class="e" x="1.5" y="11.75" width="5" height="29" rx="1" ry="1"/><rect class="e" x="22.5" y="12.75" width="5" height="37" transform="translate(56.25 6.25) rotate(90)"/><rect class="e" x="43.5" y="20.25" width="5" height="20.5" rx="1" ry="1"/><path class="f" d="M28,19.25c4.5-1.5,13.741.491,15.5,3v6.5H28Z"/><path class="g" d="M28,19.259v3.123c4.5-1.5,13.741.492,15.5,3V22.259C41.741,19.75,32.5,17.759,28,19.259Z"/><path class="b" d="M28,19.259c4.5-1.5,13.741.491,15.5,3v6.5H28Z"/><path class="h" d="M27,18.25h0a1,1,0,0,1,1,1v9.5a0,0,0,0,1,0,0H24a0,0,0,0,1,0,0v-7.5A3,3,0,0,1,27,18.25Z"/><path class="i" d="M24,25.255c-5.96-2.193-11.771-1.811-17.5,0v3.5H24Z"/><path class="j" d="M6.5,25.254v2.379c5.729-1.81,11.54-2.193,17.5,0V25.254C18.04,23.062,12.229,23.444,6.5,25.254Z"/><path class="b" d="M24,25.255c-5.96-2.193-11.771-1.811-17.5,0v3.5H24Z"/></svg>