<svg xmlns="http://www.w3.org/2000/svg" viewBox="0 0 50 50"><defs><style>.a{fill:#b89558;}.b{fill:#947746;}.c{fill:none;}.c,.e{stroke:#45413c;stroke-linecap:round;stroke-linejoin:round;stroke-width:1.25px;}.d{fill:#f0d5a8;}.e{fill:#fff;}.f{fill:#45413c;}</style></defs><title>U+1F4A9-pile-of-poo</title><path class="a" d="M41.227,28.227A7.218,7.218,0,0,0,42.509,24c0-4.346-3.109-6.955-7.844-8.311A6.51,6.51,0,0,0,36.009,11.5a11.18,11.18,0,0,0-4.643-9.055,1,1,0,0,0-1.572.506A5.739,5.739,0,0,1,24.009,7c-5.8,0-10,1.579-10,6a4.846,4.846,0,0,0,.7,2.594c-4.934,1.325-8.2,3.952-8.2,8.406a7.218,7.218,0,0,0,1.282,4.227A9.673,9.673,0,0,0,3.509,36.25c0,8.25,9.4,12.25,21,12.25s21-4,21-12.25A9.671,9.671,0,0,0,41.227,28.227Z"/><path class="b" d="M24.509,44.5c-10.62,0-19.375-3.365-20.78-10.265a9.8,9.8,0,0,0-.22,2.015c0,8.25,9.4,12.25,21,12.25s21-4,21-12.25a9.734,9.734,0,0,0-.22-2.015C43.885,41.135,35.129,44.5,24.509,44.5Z"/><path class="c" d="M41.509,28.414a9.606,9.606,0,0,1,4,7.836c0,8.25-9.4,12.25-21,12.25s-21-4-21-12.25a9.606,9.606,0,0,1,4-7.836"/><path class="c" d="M34.908,15.757c4.6,1.375,7.6,3.971,7.6,8.243,0,4.241-2.958,6.83-7.5,8.212"/><path class="c" d="M14.509,32.358c-4.824-1.343-8-3.964-8-8.358,0-4.373,3.145-6.989,7.928-8.338"/><path class="c" d="M18.009,18.056c-2.436-.9-4-2.506-4-5.056,0-4.421,4.2-6,10-6a5.739,5.739,0,0,0,5.785-4.049,1,1,0,0,1,1.572-.506A11.18,11.18,0,0,1,36.009,11.5a6.3,6.3,0,0,1-3.5,5.96"/><path class="c" d="M19.022,27.313a5.37,5.37,0,0,0,4.987,2.625A5.37,5.37,0,0,0,29,27.313"/><ellipse class="d" cx="25.009" cy="9.5" rx="3" ry="1"/><path class="e" d="M5.222,4.638a6.881,6.881,0,0,1,2.455,2.91,6.886,6.886,0,0,1-3.8-.229C2.4,6.576,1.943,5.6,2.315,4.857S3.741,3.9,5.222,4.638Z"/><path class="e" d="M10.457,4.94a6.884,6.884,0,0,1-2.77,2.613,6.884,6.884,0,0,1,.018-3.808c.659-1.52,1.611-2.026,2.371-1.7S11.116,3.42,10.457,4.94Z"/><path class="e" d="M42.924,10.734a6.221,6.221,0,0,1-.173,3.434,6.219,6.219,0,0,1-2.367-2.493c-.519-1.4-.215-2.327.486-2.587S42.405,9.332,42.924,10.734Z"/><path class="e" d="M46.192,14.159a6.221,6.221,0,0,1-3.438.018,6.213,6.213,0,0,1,2.358-2.5c1.372-.6,2.311-.343,2.61.342S47.563,13.563,46.192,14.159Z"/><circle class="f" cx="30.309" cy="22.5" r="1.75"/><circle class="f" cx="17.809" cy="22.5" r="1.75"/></svg>