<?xml version="1.0" encoding="utf-8"?>
<!-- Generator: Adobe Illustrator 23.0.3, SVG Export Plug-In . SVG Version: 6.00 Build 0)  -->
<svg version="1.1" id="Layer_1" xmlns="http://www.w3.org/2000/svg" xmlns:xlink="http://www.w3.org/1999/xlink" x="0px" y="0px"
	 viewBox="0 0 100 100" style="enable-background:new 0 0 100 100;" xml:space="preserve">
	<style type="text/css">
		.st0  { fill : #FFFFFF; }
		.st1  { fill : #E8F4FA; }
		.st2  { fill : #4AEFF7; }
		.st3  { fill : #A6FBFF; }
		.st4  { fill : #87898C; stroke : #45413C; stroke-linecap : round; stroke-linejoin : round; }
		.st5  { fill : #00B8F0; }
		.st6  { fill : #4ACFFF; }
		.st7  { fill : none;    stroke : #45413C; stroke-linecap : round; stroke-linejoin : round; }
		.st8  { fill : #FFFACF; }
		.st9  { fill : #FFF48C; }
		.st10 { fill : #DAEDF7; stroke : #45413C; stroke-linecap : round; stroke-linejoin : round; }
		.st11 { fill : #D9FDFF; stroke : #45413C; stroke-linecap : round; stroke-linejoin : round; }
		.st12 { fill : #FFE500; stroke : #45413C; stroke-linecap : round; stroke-linejoin : round; }
		.st13 { fill : #E0E0E0; stroke : #45413C; stroke-linecap : round; stroke-linejoin : round; }
		.st14 { fill : #FFF48C; stroke : #45413C; stroke-linecap : round; stroke-linejoin : round; }
		.st15 { fill : #80DDFF; }
		.st16 { fill : #FFB0CA; stroke : #45413C; stroke-linecap : round; stroke-linejoin : round; }
		
		.st2  { fill : green;  }
		.st3  { fill : orange; }
		.st7  { fill : red;    }
		.st9  { fill : blue;   }
		.st10 { fill : purple; }
		.st13 { fill : teal;   }
	</style>

	<title>amusement-park</title>

	<path class="st0" d="M13.6,68.5c0.5,1.2,1.2,2.4,1.8,3.5C22.5,84.4,35.7,92,50,92c14.3,0,27.5-7.6,34.6-20c0.7-1.1,1.3-2.3,1.8-3.5
		H13.6z"/>
	<path class="st1" d="M90,52c0-22.1-17.9-40-40-40S10,29.9,10,52c0,5.7,1.2,11.3,3.6,16.5h72.9C88.8,63.3,90,57.7,90,52z"/>

	<rect x="43.8" y="34.5" class="st2" width="17.4" height="18.8"/>
	<rect x="43.8" y="42.4" class="st3" width="17.4" height="10.9"/>

	<path class="st4" d="M48.2,37.4h8.7l0,0v12.5c0,0.3-0.2,0.5-0.5,0.5h-7.7c-0.3,0-0.5-0.2-0.5-0.5V37.4L48.2,37.4z"/>
	<path class="st5" d="M48.2,37.4v10.1h2.2c0.1-1.2,1.1-2.1,2.3-2c1.1,0.1,2,0.9,2,2h2.2V37.4H48.2z"/>
	<path class="st6" d="M51.7,45.5l4.9-8.1h-8.4v10.1h2.2C50.4,46.6,50.9,45.8,51.7,45.5z"/>
	<path class="st7" d="M48.2,37.4v10.1h2.2c0.1-1.2,1.1-2.1,2.3-2c1.1,0.1,2,0.9,2,2h2.2V37.4H48.2z"/>

	<rect x="23.6" y="34.5" class="st2" width="4.3" height="18.8"/>
	<rect x="23.6" y="42.4" class="st3" width="4.3" height="10.9"/>
	<rect x="43.8" y="34.5" class="st7b" width="17.4" height="18.8"/>
	<rect x="23.6" y="34.5" class="st7b" width="4.3" height="18.8"/>

	<path class="st8" d="M23.2,53.3h5c0.6,0,1.1,0.5,1.1,1.1v14.1l0,0h-7.2l0,0V54.4C22.1,53.8,22.6,53.3,23.2,53.3z"/>

	<rect x="22.1" y="56.2" class="st9" width="7.2" height="12.3"/>

	<path class="st7" d="M23.2,53.3h5c0.6,0,1.1,0.5,1.1,1.1v14.1l0,0h-7.2l0,0V54.4C22.1,53.8,22.6,53.3,23.2,53.3z"/>
	<path class="st8" d="M43.6,53.3h17.9c0.6,0,1,0.4,1,1v14.2l0,0H42.6l0,0V54.3C42.6,53.8,43,53.3,43.6,53.3
		C43.6,53.3,43.6,53.3,43.6,53.3z"/>

	<rect x="42.6" y="56.2" class="st9" width="19.9" height="12.3"/>

	<path class="st7" d="M43.6,53.3h17.9c0.6,0,1,0.4,1,1v14.2l0,0H42.6l0,0V54.3C42.6,53.8,43,53.3,43.6,53.3
		C43.6,53.3,43.6,53.3,43.6,53.3z"/>

	<rect x="77.1" y="42.4" class="st10" width="2.9" height="26.1"/>

	<line class="st7" x1="11" y1="68.5" x2="89" y2="68.5"/>
	<line class="st7" x1="6.5" y1="68.5" x2="9" y2="68.5"/>
	<line class="st7" x1="91" y1="68.5" x2="93.5" y2="68.5"/>
	<line class="st7" x1="35.9" y1="20" x2="35.9" y2="12"/>
	<line class="st7" x1="48.9" y1="20" x2="48.9" y2="12"/>
	<path class="st11" d="M77.1,42.4h5.1l0,0v19.3c0,0.6-0.4,1-1,1h-4.1l0,0V42.4L77.1,42.4z"/>
	<line class="st7" x1="80" y1="45.3" x2="82.2" y2="45.3"/>
	<line class="st7" x1="80" y1="48.2" x2="82.2" y2="48.2"/>
	<line class="st7" x1="80" y1="51.1" x2="82.2" y2="51.1"/>
	<line class="st7" x1="80" y1="54" x2="82.2" y2="54"/>
	<line class="st7" x1="80" y1="56.9" x2="82.2" y2="56.9"/>
	<line class="st7" x1="80" y1="59.8" x2="82.2" y2="59.8"/>
	<path class="st12" d="M35.9,8.6V12l3.8-1.6c0.3-0.1,0.4-0.5,0.3-0.8c-0.1-0.1-0.2-0.3-0.3-0.3l-3-1.3c-0.3-0.1-0.6,0-0.8,0.3
		C35.9,8.4,35.9,8.5,35.9,8.6z"/>
	<path class="st12" d="M48.9,8.6V12l3.8-1.6c0.3-0.1,0.4-0.5,0.3-0.8c-0.1-0.1-0.2-0.3-0.3-0.3l-3-1.3c-0.3-0.1-0.6,0-0.8,0.3
		C48.9,8.4,48.9,8.5,48.9,8.6z"/>

	<rect x="35.9" y="17.1" class="st13" width="13" height="2.9"/>

	<path class="st14" d="M60.5,34.5H20.7v3.3c0,1,0.8,1.8,1.8,1.8c1,0,1.8-0.8,1.8-1.8l0,0c0,1,0.8,1.8,1.8,1.8c1,0,1.8-0.8,1.8-1.8
		c-0.1,1,0.7,1.9,1.7,1.9s1.9-0.7,1.9-1.7c0-0.1,0-0.2,0-0.3c0,1,0.8,1.8,1.8,1.8c1,0,1.8-0.8,1.8-1.8c0,0,0,0,0,0
		c0,1,0.8,1.8,1.8,1.8c1,0,1.8-0.8,1.8-1.8c0,0,0,0,0,0c0,1,0.8,1.8,1.8,1.8c1,0,1.8-0.8,1.8-1.8c0,0,0,0,0,0c0,1,0.8,1.8,1.8,1.8
		c1,0,1.8-0.8,1.8-1.8c0,0,0,0,0,0c0,1,0.8,1.8,1.8,1.8c1,0,1.8-0.8,1.8-1.8c0,1,0.8,1.8,1.8,1.8c1,0,1.8-0.8,1.8-1.8c0,0,0,0,0,0
		c0,1,0.8,1.8,1.8,1.8c1,0,1.8-0.8,1.8-1.8c0,0,0,0,0,0c0,1,0.8,1.8,1.8,1.8c1,0,1.8-0.8,1.8-1.8c-0.1,1,0.7,1.9,1.7,1.9
		c1,0.1,1.9-0.7,1.9-1.7c0-0.1,0-0.2,0-0.3v-3.3H60.5z"/>
	<path class="st15" d="M48.9,20h-13c-1.4,5.5-5.2,10-10.4,12.3l-4.8,2.2h43.4l-4.8-2.2C54.1,30,50.3,25.5,48.9,20z"/>
	<path class="st6" d="M59.3,32.3C56.4,31,53.9,29,52,26.5H32.8c-1.9,2.5-4.4,4.5-7.2,5.8l-4.9,2.2h43.4L59.3,32.3z"/>
	<path class="st7" d="M48.9,20h-13c-1.4,5.5-5.2,10-10.4,12.3l-4.8,2.2h43.4l-4.8-2.2C54.1,30,50.3,25.5,48.9,20z"/>
	<path class="st16" d="M33.7,29.4l0.7-0.5c2.4-1.6,5.1-2.4,8-2.4l0,0c2.8,0,5.6,0.8,8,2.4l0.7,0.5v5.1L50.4,34
		c-2.4-1.6-5.2-2.4-8-2.4l0,0c-2.8,0-5.6,0.8-7.9,2.4l-0.7,0.5V29.4z"/>

	<polygon class="st16" points="51.1,30.9 55.4,30.9 54,33 55.4,35.9 51.1,35.9 "/>

	<polygon class="st16" points="33.7,30.9 29.4,30.9 30.8,33 29.4,35.9 33.7,35.9 "/>

	<path class="st12" d="M83.3,38.1h-9v-2.2l-4.6,3.9c-0.2,0.2-0.3,0.6-0.1,0.8c0,0,0,0,0.1,0.1l4.6,3.9v-2.2h9c0.3,0,0.6-0.3,0.6-0.6
		c0-0.1,0-0.2-0.1-0.3l-0.8-1.3l0.8-1.3c0.2-0.3,0.1-0.6-0.2-0.8C83.5,38.1,83.4,38.1,83.3,38.1z"/>
	<path class="st7" d="M25,60.5l1.6,1.6c0.8,0.8,1.9,1.3,3.1,1.3l0,0c1.2,0,2.3-0.5,3.1-1.3l1.6-1.6"/>
	<path class="st7" d="M37.3,60.5l1.7,1.6c0.8,0.8,1.9,1.3,3,1.3l0,0c1.2,0,2.3-0.5,3.1-1.3l1.6-1.6"/>
	<path class="st7" d="M49.6,60.5l1.6,1.6c0.8,0.8,1.9,1.3,3.1,1.3l0,0c1.2,0,2.3-0.5,3.1-1.3l1.6-1.6"/>
	<path class="st7" d="M61.9,60.5l1.6,1.6c0.8,0.8,1.9,1.3,3.1,1.3l0,0c1.2,0,2.3-0.5,3.1-1.3l1.6-1.6"/>
	<path class="st10" d="M23.1,59.1H24c0.6,0,1,0.4,1,1v8.4l0,0h-2.9l0,0v-8.4C22.1,59.5,22.5,59.1,23.1,59.1
		C23.1,59.1,23.1,59.1,23.1,59.1z"/>
	<path class="st10" d="M25,57.6c0.1,0.8-0.5,1.5-1.3,1.6c-0.8,0.1-1.5-0.5-1.6-1.3c0-0.1,0-0.2,0-0.2c0.1-0.8,0.8-1.4,1.6-1.3
		C24.4,56.4,24.9,56.9,25,57.6z"/>
	<path class="st10" d="M35.4,59.1h0.9c0.6,0,1,0.4,1,1v8.4l0,0h-2.9l0,0v-8.4C34.4,59.5,34.9,59.1,35.4,59.1z"/>
	<path class="st10" d="M37.3,57.6c0,0.8-0.6,1.5-1.4,1.5s-1.5-0.6-1.5-1.4c0-0.8,0.6-1.5,1.4-1.5c0,0,0,0,0,0
		C36.7,56.2,37.3,56.8,37.3,57.6z"/>
	<path class="st10" d="M60,59.1h0.9c0.6,0,1,0.4,1,1v8.4l0,0H59l0,0v-8.4C59,59.5,59.4,59.1,60,59.1z"/>
	<path class="st10" d="M61.9,57.6c0,0.8-0.6,1.5-1.4,1.5S59,58.5,59,57.7c0-0.8,0.6-1.5,1.4-1.5c0,0,0,0,0,0
		C61.3,56.2,61.9,56.8,61.9,57.6z"/>
	<path class="st10" d="M72.3,59.1h0.9c0.6,0,1,0.4,1,1v8.4l0,0h-2.9l0,0v-8.4C71.3,59.5,71.8,59.1,72.3,59.1z"/>
	<path class="st10" d="M74.2,57.6c0,0.8-0.6,1.5-1.4,1.5s-1.5-0.6-1.5-1.4c0-0.8,0.6-1.5,1.4-1.5c0,0,0,0,0,0
		C73.6,56.2,74.2,56.8,74.2,57.6z"/>
	<path class="st10" d="M47.7,59.1h0.9c0.6,0,1,0.4,1,1v8.4l0,0h-2.9l0,0v-8.4C46.7,59.5,47.2,59.1,47.7,59.1z"/>
	<path class="st10" d="M49.6,57.6c0,0.8-0.6,1.5-1.4,1.5s-1.5-0.6-1.5-1.4c0-0.8,0.6-1.5,1.4-1.5c0,0,0,0,0,0
		C49,56.2,49.6,56.8,49.6,57.6z"/>
</svg>
