<svg xmlns="http://www.w3.org/2000/svg" xmlns:xlink="http://www.w3.org/1999/xlink" viewBox="0 0 50 50"><defs><style>.a{fill:url(#a);}.b{fill:#8ca4b8;}.c{fill:none;stroke:#45413c;}.c,.d{stroke-linecap:round;stroke-linejoin:round;stroke-width:1.25px;}.d{fill:#00b8f0;stroke:#0097d9;}</style><linearGradient id="a" x1="19.689" y1="0.253" x2="19.689" y2="43.892" gradientUnits="userSpaceOnUse"><stop offset="0" stop-color="#8ca4b8"/><stop offset="0.119" stop-color="#829aae"/><stop offset="0.398" stop-color="#70899b"/><stop offset="0.688" stop-color="#667e90"/><stop offset="1" stop-color="#627b8c"/></linearGradient></defs><title>U+1F5E3-speaking-head</title><path class="a" d="M36.573,13.786c-.264-.651-.78-2.02-1.114-2.631a3.246,3.246,0,1,0-3.61-4.672A17.159,17.159,0,0,0,19.748,1.5,18.355,18.355,0,0,0,1.419,20,18.333,18.333,0,0,0,11.734,36.655,20.37,20.37,0,0,0,7.434,47.4a1,1,0,0,0,1,1.1H29.062a1,1,0,0,0,1-1.1,20.925,20.925,0,0,0-3.775-10.1c5.769-2.185,9.646-7.167,11-13.3L27.692,20.42Z"/><path class="b" d="M19.748,4.831a17.159,17.159,0,0,1,12.1,4.983,3.227,3.227,0,0,1,5.641-.147A3.215,3.215,0,0,0,37.96,8a3.241,3.241,0,0,0-6.111-1.516A17.159,17.159,0,0,0,19.748,1.5,18.355,18.355,0,0,0,1.419,20c0,.568.032,1.128.081,1.684A18.322,18.322,0,0,1,19.748,4.831Z"/><path class="c" d="M36.573,13.786c-.264-.651-.78-2.02-1.114-2.631a3.246,3.246,0,1,0-3.61-4.672A17.159,17.159,0,0,0,19.748,1.5,18.355,18.355,0,0,0,1.419,20,18.333,18.333,0,0,0,11.734,36.655,20.37,20.37,0,0,0,7.434,47.4a1,1,0,0,0,1,1.1H29.062a1,1,0,0,0,1-1.1,20.925,20.925,0,0,0-3.775-10.1c5.769-2.185,9.646-7.167,11-13.3L27.692,20.42Z"/><path class="d" d="M47.424,20.379c-.639,0-4.006-.518-4.006-1.157s3.367-1.158,4.006-1.158a1.158,1.158,0,0,1,0,2.315Z"/><path class="d" d="M43.645,27.641c-.452-.452-2.467-3.2-2.015-3.652s3.2,1.563,3.651,2.015a1.157,1.157,0,0,1-1.636,1.637Z"/><path class="d" d="M44.962,12.572c-.452.452-3.2,2.466-3.651,2.014s1.562-3.2,2.014-3.651a1.158,1.158,0,1,1,1.637,1.637Z"/></svg>