<svg xmlns="http://www.w3.org/2000/svg" viewBox="0 0 50 50"><defs><style>.a,.c{fill:#724f3d;}.a,.d,.g,.h{stroke:#45413c;stroke-linecap:round;stroke-linejoin:round;stroke-width:1.25px;}.b{fill:#a86c4d;}.d{fill:none;}.e{fill:#bf8256;}.f{fill:#dea47a;}.g{fill:#f2c100;}.h{fill:#ffe500;}.i{fill:#45413c;}</style></defs><title>U+1F4BC-briefcase</title><path class="a" d="M40.616,6.581,6.362,12.538A6.471,6.471,0,0,0,1.01,19.272L1.524,41.3a3.86,3.86,0,0,0,1.124,2.514L3.771,44.94c.928.928,3.176,3.131,4.459,2.852l36.927-8.027a3.858,3.858,0,0,0,3.039-3.77V12.956a6.47,6.47,0,0,0-3.577-5.787h0A6.469,6.469,0,0,0,40.616,6.581Z"/><path class="b" d="M45.157,39.765a3.858,3.858,0,0,0,3.039-3.77V12.956a6.472,6.472,0,0,0-7.58-6.375L7.086,12.413V46.479a3.5,3.5,0,0,0,.287,1.4,3.838,3.838,0,0,0,.857-.088Z"/><path class="c" d="M48.2,12.956a6.472,6.472,0,0,0-7.58-6.375L7.086,12.413V28.435L7.9,33.322a2.02,2.02,0,0,0,2.081,1.686l21.448-.932L48.2,25.692Z"/><path class="d" d="M45.157,39.765a3.858,3.858,0,0,0,3.039-3.77V12.956a6.472,6.472,0,0,0-7.58-6.375L7.086,12.413V46.479a3.5,3.5,0,0,0,.287,1.4,3.838,3.838,0,0,0,.857-.088Z"/><path class="e" d="M42.373,6.508a6.2,6.2,0,0,0-1.757.073L6.362,12.538a6.469,6.469,0,0,0-4.85,3.852h0A6.435,6.435,0,0,1,8,21.765L9.56,31.114a1.828,1.828,0,0,0,1.882,1.525l19.4-.843L47.99,23.22a1.827,1.827,0,0,0,1-1.806l-.8-8.458A6.489,6.489,0,0,0,42.373,6.508Z"/><path class="f" d="M2.732,16.479a6.451,6.451,0,0,1,3.63-1.97L40.616,8.552a6.2,6.2,0,0,1,1.757-.073A6.489,6.489,0,0,1,48.2,14.927l.687,7.3a1.817,1.817,0,0,0,.109-.815l-.8-8.458a6.489,6.489,0,0,0-5.823-6.448,6.2,6.2,0,0,0-1.757.073L6.362,12.538a6.469,6.469,0,0,0-4.85,3.852A6.483,6.483,0,0,1,2.732,16.479Z"/><path class="d" d="M42.373,6.508a6.2,6.2,0,0,0-1.757.073L6.362,12.538a6.469,6.469,0,0,0-4.85,3.852h0A6.435,6.435,0,0,1,8,21.765L9.56,31.114a1.828,1.828,0,0,0,1.882,1.525l19.4-.843L47.99,23.22a1.827,1.827,0,0,0,1-1.806l-.8-8.458A6.489,6.489,0,0,0,42.373,6.508Z"/><path class="c" d="M17.135,13.022a1.97,1.97,0,0,1-1.971-1.971V8.837a5.326,5.326,0,0,1,4.27-5.208l7.021-1.4a5.311,5.311,0,0,1,6.354,5.208V8.31a1.971,1.971,0,1,1-3.942,0V7.433a1.37,1.37,0,0,0-1.639-1.344l-7.021,1.4a1.374,1.374,0,0,0-1.1,1.344v2.214A1.971,1.971,0,0,1,17.135,13.022Z"/><path class="b" d="M15.656,10.315a5.327,5.327,0,0,1,4.27-5.208l7.022-1.4a5.32,5.32,0,0,1,5.78,2.8,5.312,5.312,0,0,0-6.273-4.28l-7.021,1.4a5.326,5.326,0,0,0-4.27,5.208v2.214a1.963,1.963,0,0,0,.492,1.3Z"/><path class="d" d="M17.135,13.022a1.97,1.97,0,0,1-1.971-1.971V8.837a5.326,5.326,0,0,1,4.27-5.208l7.021-1.4a5.311,5.311,0,0,1,6.354,5.208V8.31a1.971,1.971,0,1,1-3.942,0V7.433a1.37,1.37,0,0,0-1.639-1.344l-7.021,1.4a1.374,1.374,0,0,0-1.1,1.344v2.214A1.971,1.971,0,0,1,17.135,13.022Z"/><path class="g" d="M33.251,35.173l-3.781.976a1.363,1.363,0,0,1-1.7-1.2l-.333-5.771a1.362,1.362,0,0,1,1.017-1.438l3.782-.976a1.363,1.363,0,0,1,1.7,1.2l.332,5.771A1.362,1.362,0,0,1,33.251,35.173Z"/><path class="h" d="M26.9,30.482a1.478,1.478,0,0,1-.357-2.912l7.3-1.825a1.478,1.478,0,0,1,.717,2.868l-7.3,1.825A1.484,1.484,0,0,1,26.9,30.482Z"/><path d="M30.267 32.599 A0.985 1.478 0 1 0 32.237 32.599 A0.985 1.478 0 1 0 30.267 32.599 Z" class="i"/></svg>