<svg xmlns="http://www.w3.org/2000/svg" xmlns:xlink="http://www.w3.org/1999/xlink" viewBox="0 0 50 50"><defs><style>.a{fill:#525252;}.a,.c,.d,.e,.g,.i{stroke:#45413c;stroke-linecap:round;stroke-linejoin:round;stroke-width:1.25px;}.b{fill:#dabff5;}.c{fill:none;}.d{fill:#ffe500;}.e{fill:#00b8f0;}.f{fill:#bf8df2;}.g{fill:#656769;}.h{fill:url(#a);}.i,.j{fill:#ffcc24;}.k{fill:#ffdd7d;}.l{fill:#45413c;}</style><linearGradient id="a" x1="25.08" y1="9.514" x2="24.763" y2="25.32" gradientUnits="userSpaceOnUse"><stop offset="0" stop-color="#fff48c"/><stop offset="1" stop-color="#ffe500"/></linearGradient></defs><title>U+1F6B6-man-walking</title><path d="M26.500 43.000 A2.5 3.5 0 1 0 31.500 43.000 A2.5 3.5 0 1 0 26.500 43.000 Z" class="a"/><path class="b" d="M20.139,23.5A25.108,25.108,0,0,1,15.2,30.7c-3.113,2.967-.542,5.5,1.119,4.795s4.377-4.253,4.377-4.253L22.5,24.461Z"/><path class="c" d="M20.139,23.5A25.108,25.108,0,0,1,15.2,30.7c-3.113,2.967-.542,5.5,1.119,4.795s4.377-4.253,4.377-4.253L22.5,24.461Z"/><path class="d" d="M14.713,31.213c-2.328,2.738.038,4.942,1.6,4.282a6.1,6.1,0,0,0,1.559-1.12Z"/><path class="e" d="M35.5,33.5c-.48-2.884-2.36-10.829-8.279-11.44A4.394,4.394,0,0,0,26.5,22c-5.5,0-7,4.925-7,11a14.142,14.142,0,0,0,2.514,8.44C21.455,42.362,21,43,21,43l5.5,4a34.129,34.129,0,0,0,5.674-9.628,1.464,1.464,0,0,0,.326.128C34.5,38,36,36.5,35.5,33.5Z"/><path class="b" d="M35.359,32.738l-.009-.045c-.054-.262-.116-.548-.185-.846-.824-3.51-2.935-9.27-7.944-9.787A4.394,4.394,0,0,0,26.5,22c-5.5,0-7,4.924-7,11A20.586,20.586,0,0,0,26,34a21.922,21.922,0,0,0,4.275-.416c.527,1.811,1,3.61,2.225,3.916,2,.5,3.5-1,3-4C35.463,33.277,35.415,33.019,35.359,32.738Z"/><path class="f" d="M20.127,27.349A11.917,11.917,0,0,0,32.06,24.872a7.086,7.086,0,0,0-4.839-2.812A4.394,4.394,0,0,0,26.5,22C22.873,22,20.993,24.148,20.127,27.349Z"/><path class="c" d="M35.359,32.738l-.009-.045c-.054-.262-.116-.548-.185-.846-.824-3.51-2.935-9.27-7.944-9.787A4.394,4.394,0,0,0,26.5,22c-5.5,0-7,4.924-7,11A20.586,20.586,0,0,0,26,34a21.922,21.922,0,0,0,4.275-.416c.527,1.811,1,3.61,2.225,3.916,2,.5,3.5-1,3-4C35.463,33.277,35.415,33.019,35.359,32.738Z"/><path class="c" d="M30.275,33.584A19.478,19.478,0,0,0,28.49,30.1"/><path class="d" d="M35.5,33.5c-.006-.036-.015-.082-.021-.12l-4.9,1.226c.435,1.419.934,2.646,1.924,2.894C34.5,38,36,36.5,35.5,33.5Z"/><path class="c" d="M22.014,41.44A12.038,12.038,0,0,0,24,37.5"/><path d="M21.211 46.591 A3 3.941 -35.51139617350159 1 0 26.095 43.106 A3 3.941 -35.51139617350159 1 0 21.211 46.591 Z" class="g"/><path d="M13.000 13.500 A12.000 12.000 0 1 0 37.000 13.500 A12.000 12.000 0 1 0 13.000 13.500 Z" class="h"/><path d="M13.000 13.500 A12.000 12.000 0 1 0 37.000 13.500 A12.000 12.000 0 1 0 13.000 13.500 Z" class="c"/><path class="i" d="M13.011,13.281A7.888,7.888,0,0,0,17,10.5c1.527-2.291,1.3-5.451,1.115-6.819A11.974,11.974,0,0,0,13.011,13.281Z"/><path class="j" d="M25,1.5c-5,0-7,1-11.5,0,0,0-.5,5,6,7s9,.5,9,.5a11.144,11.144,0,0,0,1.767,5.52,1.993,1.993,0,1,1,2.7,2.719,12.606,12.606,0,0,0,2.837,1.432A11.961,11.961,0,0,0,25,1.5Z"/><path class="k" d="M25,4A12,12,0,0,1,36.929,14.711,11.806,11.806,0,0,0,37,13.5a12,12,0,0,0-12-12c-5,0-7,1-11.5,0A5.89,5.89,0,0,0,14,4.1C18.152,4.919,20.192,4,25,4Z"/><path class="c" d="M25,1.5c-5,0-7,1-11.5,0,0,0-.5,5,6,7s9,.5,9,.5a11.144,11.144,0,0,0,1.767,5.52,1.993,1.993,0,1,1,2.7,2.719,12.606,12.606,0,0,0,2.837,1.432A11.961,11.961,0,0,0,25,1.5Z"/><path d="M17.300 15.550 A1.050 1.050 0 1 0 19.400 15.550 A1.050 1.050 0 1 0 17.300 15.550 Z" class="l"/><path d="M23.600 15.550 A1.050 1.050 0 1 0 25.700 15.550 A1.050 1.050 0 1 0 23.600 15.550 Z" class="l"/><path class="c" d="M20.1,19.4a1.4,1.4,0,0,0,2.8,0"/></svg>