<svg xmlns="http://www.w3.org/2000/svg" viewBox="0 0 50 50"><defs><style>.a,.c{fill:#525252;}.a,.d{stroke:#45413c;stroke-linecap:round;stroke-linejoin:round;stroke-width:1.25px;}.b{fill:#656769;}.d{fill:none;}.e{fill:#ff6242;}.f{fill:#ff866e;}.g{fill:#87898c;}</style></defs><title>U+1F3A9-top-hat</title><path class="a" d="M48,34.953c1-6-7.284-1.176-13-3-7.547-2.409-11.889-2.589-20,0-5.716,1.824-14-3-13,3a10.416,10.416,0,0,0,0,2c.9,5.376,10.278,9.872,23,9.989,12.722-.117,22.1-4.613,23-9.989A10.416,10.416,0,0,0,48,34.953Z"/><path class="b" d="M35,31.953c-7.547-2.409-11.889-2.589-20,0-5.716,1.824-14-3-13,3,.9,5.376,10.278,9.872,23,9.989,12.722-.117,22.1-4.613,23-9.989C49,28.953,40.716,33.777,35,31.953Z"/><path d="M9.250 36.453 A15.5 7 0 1 0 40.250 36.453 A15.5 7 0 1 0 9.250 36.453 Z" class="c"/><path class="d" d="M35,31.953c-7.547-2.409-11.889-2.589-20,0-5.716,1.824-14-3-13,3,.9,5.376,10.278,9.872,23,9.989,12.722-.117,22.1-4.613,23-9.989C49,28.953,40.716,33.777,35,31.953Z"/><path class="c" d="M8.472,9.669l2.834,25.5c0,3.026,6.131,5.478,13.694,5.478S38.694,38.2,38.694,35.169l2.834-25.5Z"/><path class="b" d="M9.151,15.776a35.592,35.592,0,0,0,16.1,3.677,34.283,34.283,0,0,0,15.584-3.536l.694-6.248H8.472Z"/><path class="d" d="M8.472,9.669l2.834,25.5c0,3.026,6.131,5.478,13.694,5.478S38.694,38.2,38.694,35.169l2.834-25.5Z"/><path class="e" d="M25,32.035c-6.749,0-12.466-1.748-14.506-4.173l.812,7.307c0,3.026,6.131,5.478,13.694,5.478S38.694,38.2,38.694,35.169l.812-7.307C37.466,30.287,31.749,32.035,25,32.035Z"/><path class="f" d="M25,35.035c6.374,0,11.824-1.56,14.129-3.776l.377-3.4c-2.04,2.425-7.757,4.173-14.506,4.173s-12.466-1.748-14.506-4.173l.377,3.4C13.176,33.475,18.626,35.035,25,35.035Z"/><path class="d" d="M25,32.035c-6.749,0-12.466-1.748-14.506-4.173l.812,7.307c0,3.026,6.131,5.478,13.694,5.478S38.694,38.2,38.694,35.169l.812-7.307C37.466,30.287,31.749,32.035,25,32.035Z"/><path d="M8.472 9.669 A16.528 6.611 0 1 0 41.528 9.669 A16.528 6.611 0 1 0 8.472 9.669 Z" class="b"/><path class="g" d="M25,6.058c7.836,0,14.384,2.184,16.084,5.111a2.971,2.971,0,0,0,.444-1.5c0-3.651-7.4-6.611-16.528-6.611S8.472,6.018,8.472,9.669a2.971,2.971,0,0,0,.444,1.5C10.616,8.242,17.164,6.058,25,6.058Z"/><path d="M8.472 9.669 A16.528 6.611 0 1 0 41.528 9.669 A16.528 6.611 0 1 0 8.472 9.669 Z" class="d"/></svg>